<mxfile host="app.diagrams.net" agent="Mozilla/5.0 (Windows NT 10.0; Win64; x64) AppleWebKit/537.36 (KHTML, like Gecko) Chrome/140.0.0.0 Safari/537.36" version="28.2.0">
  <diagram name="Strona-1" id="lpbJM3GMhRv1k39ES4jl">
    <mxGraphModel dx="1773" dy="563" grid="1" gridSize="10" guides="1" tooltips="1" connect="1" arrows="1" fold="1" page="1" pageScale="1" pageWidth="827" pageHeight="1169" math="0" shadow="0">
      <root>
        <mxCell id="0" />
        <mxCell id="1" parent="0" />
        <mxCell id="12rjHacdEKxgp9cwcFn_-9" style="edgeStyle=orthogonalEdgeStyle;rounded=0;orthogonalLoop=1;jettySize=auto;html=1;" edge="1" parent="1" source="12rjHacdEKxgp9cwcFn_-2" target="12rjHacdEKxgp9cwcFn_-8">
          <mxGeometry relative="1" as="geometry" />
        </mxCell>
        <mxCell id="12rjHacdEKxgp9cwcFn_-2" value="SPC" style="html=1;outlineConnect=0;whiteSpace=wrap;fillColor=#99ffff;shape=mxgraph.archimate3.application;appType=comp;archiType=square;fontFamily=Poppins;fontSource=https%3A%2F%2Ffonts.googleapis.com%2Fcss%3Ffamily%3DPoppins;" vertex="1" parent="1">
          <mxGeometry x="130" y="40" width="130" height="70" as="geometry" />
        </mxCell>
        <mxCell id="12rjHacdEKxgp9cwcFn_-4" style="edgeStyle=orthogonalEdgeStyle;rounded=0;orthogonalLoop=1;jettySize=auto;html=1;dashed=1;dashPattern=8 8;" edge="1" parent="1" source="12rjHacdEKxgp9cwcFn_-3" target="12rjHacdEKxgp9cwcFn_-2">
          <mxGeometry relative="1" as="geometry" />
        </mxCell>
        <mxCell id="12rjHacdEKxgp9cwcFn_-37" style="edgeStyle=orthogonalEdgeStyle;rounded=1;orthogonalLoop=1;jettySize=auto;html=1;curved=0;dashed=1;dashPattern=8 8;" edge="1" parent="1" source="12rjHacdEKxgp9cwcFn_-3" target="12rjHacdEKxgp9cwcFn_-35">
          <mxGeometry relative="1" as="geometry">
            <Array as="points">
              <mxPoint x="50" y="160" />
            </Array>
          </mxGeometry>
        </mxCell>
        <mxCell id="12rjHacdEKxgp9cwcFn_-3" value="CMC&lt;div&gt;XML&lt;/div&gt;" style="html=1;outlineConnect=0;whiteSpace=wrap;fillColor=#AFFFAF;shape=note;size=14;fontFamily=Poppins;fontSource=https%3A%2F%2Ffonts.googleapis.com%2Fcss%3Ffamily%3DPoppins;fontSize=11;" vertex="1" parent="1">
          <mxGeometry x="20" y="40" width="60" height="70" as="geometry" />
        </mxCell>
        <mxCell id="12rjHacdEKxgp9cwcFn_-16" style="edgeStyle=orthogonalEdgeStyle;rounded=0;orthogonalLoop=1;jettySize=auto;html=1;" edge="1" parent="1" source="12rjHacdEKxgp9cwcFn_-6" target="12rjHacdEKxgp9cwcFn_-13">
          <mxGeometry relative="1" as="geometry" />
        </mxCell>
        <mxCell id="12rjHacdEKxgp9cwcFn_-6" value="GroupBusinessContract&lt;br&gt;ASIF" style="html=1;outlineConnect=0;whiteSpace=wrap;fillColor=#99ffff;shape=mxgraph.archimate3.application;appType=comp;archiType=square;fontFamily=Poppins;fontSource=https%3A%2F%2Ffonts.googleapis.com%2Fcss%3Ffamily%3DPoppins;fontSize=11;" vertex="1" parent="1">
          <mxGeometry x="590" y="40" width="140" height="70" as="geometry" />
        </mxCell>
        <mxCell id="12rjHacdEKxgp9cwcFn_-11" style="edgeStyle=orthogonalEdgeStyle;rounded=0;orthogonalLoop=1;jettySize=auto;html=1;" edge="1" parent="1" source="12rjHacdEKxgp9cwcFn_-7" target="12rjHacdEKxgp9cwcFn_-6">
          <mxGeometry relative="1" as="geometry" />
        </mxCell>
        <mxCell id="12rjHacdEKxgp9cwcFn_-7" value="&lt;div&gt;Sectrans&lt;/div&gt;SFTP" style="html=1;outlineConnect=0;whiteSpace=wrap;fillColor=#AFFFAF;shape=mxgraph.archimate3.application;appType=interface;archiType=square;fontFamily=Poppins;fontSource=https%3A%2F%2Ffonts.googleapis.com%2Fcss%3Ffamily%3DPoppins;" vertex="1" parent="1">
          <mxGeometry x="420" y="40" width="120" height="70" as="geometry" />
        </mxCell>
        <mxCell id="12rjHacdEKxgp9cwcFn_-10" style="edgeStyle=orthogonalEdgeStyle;rounded=0;orthogonalLoop=1;jettySize=auto;html=1;" edge="1" parent="1" source="12rjHacdEKxgp9cwcFn_-8" target="12rjHacdEKxgp9cwcFn_-7">
          <mxGeometry relative="1" as="geometry" />
        </mxCell>
        <mxCell id="12rjHacdEKxgp9cwcFn_-8" value="Product&lt;br&gt;CSV" style="html=1;outlineConnect=0;whiteSpace=wrap;fillColor=#AFFFAF;shape=note;size=14;fontFamily=Poppins;fontSource=https%3A%2F%2Ffonts.googleapis.com%2Fcss%3Ffamily%3DPoppins;fontSize=11;" vertex="1" parent="1">
          <mxGeometry x="310" y="40" width="60" height="70" as="geometry" />
        </mxCell>
        <mxCell id="12rjHacdEKxgp9cwcFn_-32" value="" style="group" vertex="1" connectable="0" parent="1">
          <mxGeometry x="420" y="210" width="320" height="200" as="geometry" />
        </mxCell>
        <mxCell id="12rjHacdEKxgp9cwcFn_-12" value="&amp;nbsp;ABS" style="html=1;outlineConnect=0;whiteSpace=wrap;fillColor=#99ffff;shape=mxgraph.archimate3.application;appType=comp;archiType=square;fontFamily=Poppins;fontSource=https%3A%2F%2Ffonts.googleapis.com%2Fcss%3Ffamily%3DPoppins;verticalAlign=top;align=left;" vertex="1" parent="12rjHacdEKxgp9cwcFn_-32">
          <mxGeometry width="320" height="200" as="geometry" />
        </mxCell>
        <mxCell id="12rjHacdEKxgp9cwcFn_-13" value="Product&lt;br&gt;(Master Contracts&lt;br&gt;Open Policies)" style="html=1;outlineConnect=0;whiteSpace=wrap;fillColor=#99ffff;shape=mxgraph.archimate3.application;appType=func;archiType=rounded;fontFamily=Poppins;fontSource=https%3A%2F%2Ffonts.googleapis.com%2Fcss%3Ffamily%3DPoppins;" vertex="1" parent="12rjHacdEKxgp9cwcFn_-32">
          <mxGeometry x="170" y="30" width="140" height="70" as="geometry" />
        </mxCell>
        <mxCell id="12rjHacdEKxgp9cwcFn_-14" value="CMC" style="html=1;outlineConnect=0;whiteSpace=wrap;fillColor=#99ffff;shape=mxgraph.archimate3.application;appType=func;archiType=rounded;fontFamily=Poppins;fontSource=https%3A%2F%2Ffonts.googleapis.com%2Fcss%3Ffamily%3DPoppins;" vertex="1" parent="12rjHacdEKxgp9cwcFn_-32">
          <mxGeometry x="20" y="30" width="140" height="70" as="geometry" />
        </mxCell>
        <mxCell id="12rjHacdEKxgp9cwcFn_-17" value="Individual&lt;br&gt;Contract" style="html=1;outlineConnect=0;whiteSpace=wrap;fillColor=#99ffff;shape=mxgraph.archimate3.application;appType=func;archiType=rounded;fontFamily=Poppins;fontSource=https%3A%2F%2Ffonts.googleapis.com%2Fcss%3Ffamily%3DPoppins;" vertex="1" parent="12rjHacdEKxgp9cwcFn_-32">
          <mxGeometry x="170" y="120" width="140" height="70" as="geometry" />
        </mxCell>
        <mxCell id="12rjHacdEKxgp9cwcFn_-18" style="edgeStyle=orthogonalEdgeStyle;rounded=0;orthogonalLoop=1;jettySize=auto;html=1;" edge="1" parent="12rjHacdEKxgp9cwcFn_-32" source="12rjHacdEKxgp9cwcFn_-13" target="12rjHacdEKxgp9cwcFn_-17">
          <mxGeometry relative="1" as="geometry" />
        </mxCell>
        <mxCell id="12rjHacdEKxgp9cwcFn_-33" value="" style="group" vertex="1" connectable="0" parent="1">
          <mxGeometry x="-60" y="190" width="440" height="230" as="geometry" />
        </mxCell>
        <mxCell id="12rjHacdEKxgp9cwcFn_-21" value="&amp;nbsp;eMagin" style="html=1;outlineConnect=0;whiteSpace=wrap;fillColor=#99ffff;shape=mxgraph.archimate3.application;appType=comp;archiType=square;fontFamily=Poppins;fontSource=https%3A%2F%2Ffonts.googleapis.com%2Fcss%3Ffamily%3DPoppins;verticalAlign=top;align=left;" vertex="1" parent="12rjHacdEKxgp9cwcFn_-33">
          <mxGeometry width="440" height="230" as="geometry" />
        </mxCell>
        <mxCell id="12rjHacdEKxgp9cwcFn_-28" value="" style="group" vertex="1" connectable="0" parent="12rjHacdEKxgp9cwcFn_-33">
          <mxGeometry x="10" y="30" width="270" height="180" as="geometry" />
        </mxCell>
        <mxCell id="12rjHacdEKxgp9cwcFn_-22" value="&amp;nbsp;eQS" style="html=1;outlineConnect=0;whiteSpace=wrap;fillColor=#99ffff;shape=mxgraph.archimate3.application;appType=comp;archiType=square;fontFamily=Poppins;fontSource=https%3A%2F%2Ffonts.googleapis.com%2Fcss%3Ffamily%3DPoppins;verticalAlign=top;align=left;" vertex="1" parent="12rjHacdEKxgp9cwcFn_-28">
          <mxGeometry width="270" height="180" as="geometry" />
        </mxCell>
        <mxCell id="12rjHacdEKxgp9cwcFn_-23" value="Master&lt;br&gt;Offer" style="html=1;outlineConnect=0;whiteSpace=wrap;fillColor=#99ffff;shape=mxgraph.archimate3.application;appType=func;archiType=rounded;fontFamily=Poppins;fontSource=https%3A%2F%2Ffonts.googleapis.com%2Fcss%3Ffamily%3DPoppins;" vertex="1" parent="12rjHacdEKxgp9cwcFn_-28">
          <mxGeometry x="10" y="30" width="110" height="60" as="geometry" />
        </mxCell>
        <mxCell id="12rjHacdEKxgp9cwcFn_-24" value="DCX" style="html=1;outlineConnect=0;whiteSpace=wrap;fillColor=#99ffff;shape=mxgraph.archimate3.application;appType=func;archiType=rounded;fontFamily=Poppins;fontSource=https%3A%2F%2Ffonts.googleapis.com%2Fcss%3Ffamily%3DPoppins;" vertex="1" parent="12rjHacdEKxgp9cwcFn_-28">
          <mxGeometry x="10" y="110" width="110" height="60" as="geometry" />
        </mxCell>
        <mxCell id="12rjHacdEKxgp9cwcFn_-25" value="Offer" style="html=1;outlineConnect=0;whiteSpace=wrap;fillColor=#99ffff;shape=mxgraph.archimate3.application;appType=func;archiType=rounded;fontFamily=Poppins;fontSource=https%3A%2F%2Ffonts.googleapis.com%2Fcss%3Ffamily%3DPoppins;" vertex="1" parent="12rjHacdEKxgp9cwcFn_-28">
          <mxGeometry x="150" y="70" width="110" height="60" as="geometry" />
        </mxCell>
        <mxCell id="12rjHacdEKxgp9cwcFn_-26" style="edgeStyle=orthogonalEdgeStyle;rounded=1;orthogonalLoop=1;jettySize=auto;html=1;curved=0;" edge="1" parent="12rjHacdEKxgp9cwcFn_-28" source="12rjHacdEKxgp9cwcFn_-23" target="12rjHacdEKxgp9cwcFn_-25">
          <mxGeometry relative="1" as="geometry">
            <Array as="points">
              <mxPoint x="129" y="60" />
              <mxPoint x="129" y="100" />
            </Array>
          </mxGeometry>
        </mxCell>
        <mxCell id="12rjHacdEKxgp9cwcFn_-27" style="edgeStyle=orthogonalEdgeStyle;rounded=1;orthogonalLoop=1;jettySize=auto;html=1;curved=0;" edge="1" parent="12rjHacdEKxgp9cwcFn_-28" source="12rjHacdEKxgp9cwcFn_-24" target="12rjHacdEKxgp9cwcFn_-25">
          <mxGeometry relative="1" as="geometry">
            <Array as="points">
              <mxPoint x="129" y="140" />
              <mxPoint x="129" y="100" />
            </Array>
          </mxGeometry>
        </mxCell>
        <mxCell id="12rjHacdEKxgp9cwcFn_-29" value="Purchase&lt;br&gt;(Quote &amp;amp; Buy)" style="html=1;outlineConnect=0;whiteSpace=wrap;fillColor=#99ffff;shape=mxgraph.archimate3.application;appType=comp;archiType=square;" vertex="1" parent="12rjHacdEKxgp9cwcFn_-33">
          <mxGeometry x="300" y="30" width="130" height="70" as="geometry" />
        </mxCell>
        <mxCell id="12rjHacdEKxgp9cwcFn_-30" value="Export" style="html=1;outlineConnect=0;whiteSpace=wrap;fillColor=#99ffff;shape=mxgraph.archimate3.application;appType=comp;archiType=square;" vertex="1" parent="12rjHacdEKxgp9cwcFn_-33">
          <mxGeometry x="300" y="140" width="130" height="70" as="geometry" />
        </mxCell>
        <mxCell id="12rjHacdEKxgp9cwcFn_-31" style="edgeStyle=orthogonalEdgeStyle;rounded=0;orthogonalLoop=1;jettySize=auto;html=1;" edge="1" parent="12rjHacdEKxgp9cwcFn_-33" source="12rjHacdEKxgp9cwcFn_-29" target="12rjHacdEKxgp9cwcFn_-30">
          <mxGeometry relative="1" as="geometry" />
        </mxCell>
        <mxCell id="12rjHacdEKxgp9cwcFn_-34" style="edgeStyle=orthogonalEdgeStyle;rounded=0;orthogonalLoop=1;jettySize=auto;html=1;" edge="1" parent="1" source="12rjHacdEKxgp9cwcFn_-30" target="12rjHacdEKxgp9cwcFn_-17">
          <mxGeometry relative="1" as="geometry" />
        </mxCell>
        <mxCell id="12rjHacdEKxgp9cwcFn_-36" style="edgeStyle=orthogonalEdgeStyle;rounded=0;orthogonalLoop=1;jettySize=auto;html=1;dashed=1;dashPattern=8 8;" edge="1" parent="1" source="12rjHacdEKxgp9cwcFn_-35" target="12rjHacdEKxgp9cwcFn_-14">
          <mxGeometry relative="1" as="geometry" />
        </mxCell>
        <mxCell id="12rjHacdEKxgp9cwcFn_-35" value="CMC&lt;br&gt;Import&lt;br&gt;scripts" style="html=1;outlineConnect=0;whiteSpace=wrap;fillColor=#AFFFAF;shape=mxgraph.archimate3.application;appType=sysSw;archiType=square;" vertex="1" parent="1">
          <mxGeometry x="460" y="130" width="100" height="60" as="geometry" />
        </mxCell>
      </root>
    </mxGraphModel>
  </diagram>
</mxfile>
